<svg width="512" height="512" viewBox="0 0 512 512" style="color:#adecbe" xmlns="http://www.w3.org/2000/svg"
  class="h-full w-full">
  <rect width="512" height="512" x="0" y="0" rx="30" fill="transparent" stroke="transparent" stroke-width="0"
    stroke-opacity="100%" paint-order="stroke"></rect><svg width="256px" height="256px" viewBox="0 0 32 32"
    fill="#adecbe" x="128" y="128" role="img" style="display:inline-block;vertical-align:middle"
    xmlns="http://www.w3.org/2000/svg">
    <g fill="#adecbe">
      <path fill="currentColor"
        d="M16.612 2.214a1.01 1.01 0 0 0-1.242 0L1 13.419l1.243 1.572L4 13.621V26a2.004 2.004 0 0 0 2 2h20a2.004 2.004 0 0 0 2-2V13.63L29.757 15L31 13.428ZM18 26h-4v-8h4Zm2 0v-8a2.002 2.002 0 0 0-2-2h-4a2.002 2.002 0 0 0-2 2v8H6V12.062l10-7.79l10 7.8V26Z" />
    </g>
  </svg>
</svg>