<svg version="1.1" xmlns="http://www.w3.org/2000/svg" viewBox="10922.9 1350.3 104.6 87.3">
<rect x="10922.9" y="1350.3" width="104.6" height="87.3" fill="#000000" />
<polyline points="10931.3 1435.5,10931.7 1432.1,10932.1 1429.1,10932.6 1425.7,10933.4 1421.5,10933.8 1416.8,10933.8 1407.5,10933.0 1397.3,10932.1 1392.2,10930.9 1387.5,10930.0 1382.5,10928.7 1378.6,10927.9 1374.8,10926.6 1369.7,10925.3 1366.8,10926.6 1369.3,10927.9 1373.1,10930.0 1378.2,10933.0 1383.7,10935.1 1386.3,10942.7 1390.9,10944.9 1391.4,10947.4 1391.4,10949.5 1390.5,10951.6 1389.2,10953.8 1387.1,10955.9 1384.6,10957.6 1381.2,10959.3 1377.4,10960.5 1373.1,10961.0 1368.9,10961.0 1361.7,10958.9 1356.6,10957.2 1354.5,10956.7 1357.9,10957.2 1360.0,10958.0 1362.5,10958.9 1365.5,10959.7 1368.9,10961.4 1377.4,10962.7 1382.5,10963.9 1388.0,10966.5 1400.3,10974.1 1431.6,10975.0 1430.8" style="fill:none;stroke:#adecbe;stroke-width:2"/>
<polyline points="10989.4 1363.4,10989.8 1365.9,10991.5 1370.6,10995.3 1378.6,10999.6 1388.8,11001.3 1394.7,11003.0 1400.3,11004.2 1405.8,11005.1 1411.3,11005.5 1416.0,11005.9 1423.6,11005.5 1426.6,11005.5 1429.1,11004.7 1431.6,11002.5 1428.7,11000.8 1426.1,10999.1 1422.7,10996.6 1418.9,10993.6 1414.3,10990.2 1409.2,10986.8 1403.7,10979.6 1390.9,10976.7 1384.6,10973.7 1377.8,10971.6 1371.8,10970.3 1366.8,10969.5 1362.5,10969.9 1359.5,10971.2 1357.0,10973.3 1354.9,10976.2 1353.2,10980.5 1352.3,10985.6 1352.8,10991.9 1354.0,10998.7 1356.2,11005.5 1358.7,11011.9 1361.2,11017.4 1364.2,11021.6 1366.8,11024.2 1369.7,11025.0 1372.3,11024.2 1374.8,11022.5 1376.9,11019.1 1379.1,11014.4 1381.2,11009.3 1382.5,11003.4 1383.7,10997.0 1384.6,10991.9 1385.4,10987.7 1385.8,10985.1 1386.7,10983.9 1388.4" style="fill:none;stroke:#adecbe;stroke-width:2"/>
</svg>