<svg width="512" height="512" viewBox="0 0 512 512" style="color:#adecbe" xmlns="http://www.w3.org/2000/svg"
  class="h-full w-full">
  <rect width="512" height="512" x="0" y="0" rx="30" fill="transparent" stroke="transparent" stroke-width="0"
    stroke-opacity="100%" paint-order="stroke"></rect><svg width="256px" height="256px" viewBox="0 0 32 32"
    fill="#adecbe" x="128" y="128" role="img" style="display:inline-block;vertical-align:middle"
    xmlns="http://www.w3.org/2000/svg">
    <g fill="#adecbe">
      <path fill="#adecbe"
        d="M25 4H10a2.002 2.002 0 0 0-2 2v14.556A3.955 3.955 0 0 0 6 20a4 4 0 1 0 4 4V12h15v8.556A3.954 3.954 0 0 0 23 20a4 4 0 1 0 4 4V6a2.002 2.002 0 0 0-2-2ZM6 26a2 2 0 1 1 2-2a2.002 2.002 0 0 1-2 2Zm17 0a2 2 0 1 1 2-2a2.003 2.003 0 0 1-2 2ZM10 6h15v4H10Z" />
    </g>
  </svg>
</svg>