<svg width="512" height="512" viewBox="0 0 512 512" style="color:#adecbe" xmlns="http://www.w3.org/2000/svg"
  class="h-full w-full">
  <rect width="512" height="512" x="0" y="0" rx="30" fill="transparent" stroke="transparent" stroke-width="0"
    stroke-opacity="100%" paint-order="stroke"></rect><svg width="256px" height="256px" viewBox="0 0 32 32"
    fill="#adecbe" x="128" y="128" role="img" style="display:inline-block;vertical-align:middle"
    xmlns="http://www.w3.org/2000/svg">
    <g fill="#adecbe">
      <path fill="#adecbe"
        d="M12 8v16H8V8h4m0-2H8a2 2 0 0 0-2 2v16a2 2 0 0 0 2 2h4a2 2 0 0 0 2-2V8a2 2 0 0 0-2-2zm12 2v16h-4V8h4m0-2h-4a2 2 0 0 0-2 2v16a2 2 0 0 0 2 2h4a2 2 0 0 0 2-2V8a2 2 0 0 0-2-2z" />
    </g>
  </svg>
</svg>