<svg width="512" height="512" viewBox="0 0 512 512" style="color:#adecbe" xmlns="http://www.w3.org/2000/svg"
  class="h-full w-full">
  <rect width="512" height="512" x="0" y="0" rx="30" fill="transparent" stroke="transparent" stroke-width="0"
    stroke-opacity="100%" paint-order="stroke"></rect><svg width="256px" height="256px" viewBox="0 0 32 32"
    fill="#adecbe" x="128" y="128" role="img" style="display:inline-block;vertical-align:middle"
    xmlns="http://www.w3.org/2000/svg">
    <g fill="#adecbe">
      <path fill="currentColor"
        d="M26 29h-.17C6.18 27.87 3.39 11.29 3 6.23A3 3 0 0 1 5.76 3h5.51a2 2 0 0 1 1.86 1.26L14.65 8a2 2 0 0 1-.44 2.16l-2.13 2.15a9.37 9.37 0 0 0 7.58 7.6l2.17-2.15a2 2 0 0 1 2.17-.41l3.77 1.51A2 2 0 0 1 29 20.72V26a3 3 0 0 1-3 3ZM6 5a1 1 0 0 0-1 1v.08C5.46 12 8.41 26 25.94 27a1 1 0 0 0 1.06-.94v-5.34l-3.77-1.51l-2.87 2.85l-.48-.06c-8.7-1.09-9.88-9.79-9.88-9.88l-.06-.48l2.84-2.87L11.28 5Z" />
    </g>
  </svg>
</svg>