<svg version="1.1" xmlns="http://www.w3.org/2000/svg" xmlns:xlink="http://www.w3.org/1999/xlink" width="256px" height="256px" viewBox="0,0,256,256">
  <g fill="#ff0000" fill-rule="nonzero" stroke="none" stroke-width="1" stroke-linecap="butt" stroke-linejoin="miter" stroke-miterlimit="10" stroke-dasharray="" stroke-dashoffset="0" font-family="none" font-weight="none" font-size="none" text-anchor="none">
    <g transform="scale(5.12,5.12)">
      <path d="M35,1c-3.5625,0 -7.125,1.42188 -9.90625,4.09375c-0.01172,0.01953 -0.02344,0.04297 -0.03125,0.0625c0.00391,-0.00781 -0.42578,0.42188 -1,1c-0.57422,0.57813 -1.35937,1.35547 -2.28125,2.28125c-1.84375,1.85156 -4.25,4.25 -6.65625,6.65625c-2.40625,2.40625 -4.79687,4.82422 -6.65625,6.6875c-0.92969,0.93359 -1.72656,1.71875 -2.3125,2.3125c-0.5625,0.56641 -0.88281,0.89453 -1.0625,1.09375c-0.00781,0.00781 -0.02344,0.05469 -0.03125,0.0625c-5.42969,5.48438 -5.44141,14.28906 0.03125,19.65625c2.6875,2.6875 6.25,4.09375 9.90625,4.09375c3.65625,0 7.13672,-1.42969 9.90625,-4.09375l20.09375,-20.09375c5.48047,-5.48047 5.49219,-14.33594 0,-19.71875c-2.78125,-2.67187 -6.34375,-4.09375 -10,-4.09375zM35,3c3.14453,0 6.17188,1.20313 8.59375,3.53125c4.69141,4.61719 4.71484,12.16016 0,16.875l-8.375,8.375l-17,-16.96875c1.76563,-1.76953 3.59375,-3.58984 4.96875,-4.96875c0.92188,-0.92578 1.70313,-1.69922 2.28125,-2.28125c0.54297,-0.55078 0.84766,-0.82422 1.03125,-1.03125c0.01172,-0.01172 0.05078,-0.05078 0.0625,-0.0625c2.41016,-2.28516 5.42578,-3.46875 8.4375,-3.46875zM16.8125,16.21875l16.96875,17l-10.28125,10.25c-1.08594,1.04297 -2.27344,1.85547 -3.53125,2.4375c-0.05078,-0.50391 -0.45312,-0.90625 -0.96875,-0.90625c-0.55078,0 -1,0.44922 -1,1c0,0.21094 0.07422,0.40234 0.1875,0.5625c-1.02734,0.28516 -2.09375,0.4375 -3.1875,0.4375c-0.53125,0 -1.07031,-0.05859 -1.59375,-0.125c0.33984,-0.16016 0.59375,-0.47656 0.59375,-0.875c0,-0.55078 -0.44922,-1 -1,-1c-0.55078,0 -1,0.44922 -1,1c0,0.26172 0.08594,0.50781 0.25,0.6875c-2.13672,-0.49219 -4.12109,-1.55859 -5.75,-3.1875c-1.67187,-1.64062 -2.73437,-3.65625 -3.21875,-5.78125c0.17969,0.17969 0.44141,0.28125 0.71875,0.28125c0.55078,0 1,-0.44922 1,-1c0,-0.55078 -0.44922,-1 -1,-1c-0.41406,0 -0.75391,0.26563 -0.90625,0.625c-0.21094,-1.60937 -0.10547,-3.23437 0.34375,-4.8125c0.16016,0.11328 0.35156,0.1875 0.5625,0.1875c0.55078,0 1,-0.44922 1,-1c0,-0.51562 -0.40234,-0.91797 -0.90625,-0.96875c0.58203,-1.24609 1.375,-2.40625 2.40625,-3.4375c0.01953,-0.00781 0.04297,-0.01953 0.0625,-0.03125c0.02734,-0.03125 0.41797,-0.47266 1,-1.0625c0.58203,-0.58984 1.38281,-1.38281 2.3125,-2.3125c1.85547,-1.86328 4.25,-4.25 6.65625,-6.65625c0.10547,-0.10547 0.17578,-0.20703 0.28125,-0.3125zM16,18c-0.55078,0 -1,0.44922 -1,1c0,0.55078 0.44922,1 1,1c0.55078,0 1,-0.44922 1,-1c0,-0.55078 -0.44922,-1 -1,-1zM13,21c-0.55078,0 -1,0.44922 -1,1c0,0.55078 0.44922,1 1,1c0.55078,0 1,-0.44922 1,-1c0,-0.55078 -0.44922,-1 -1,-1zM19,21c-0.55078,0 -1,0.44922 -1,1c0,0.55078 0.44922,1 1,1c0.55078,0 1,-0.44922 1,-1c0,-0.55078 -0.44922,-1 -1,-1zM10,24c-0.55078,0 -1,0.44922 -1,1c0,0.55078 0.44922,1 1,1c0.55078,0 1,-0.44922 1,-1c0,-0.55078 -0.44922,-1 -1,-1zM16,24c-0.55078,0 -1,0.44922 -1,1c0,0.55078 0.44922,1 1,1c0.55078,0 1,-0.44922 1,-1c0,-0.55078 -0.44922,-1 -1,-1zM22,24c-0.55078,0 -1,0.44922 -1,1c0,0.55078 0.44922,1 1,1c0.55078,0 1,-0.44922 1,-1c0,-0.55078 -0.44922,-1 -1,-1zM7,27c-0.55078,0 -1,0.44922 -1,1c0,0.55078 0.44922,1 1,1c0.55078,0 1,-0.44922 1,-1c0,-0.55078 -0.44922,-1 -1,-1zM13,27c-0.55078,0 -1,0.44922 -1,1c0,0.55078 0.44922,1 1,1c0.55078,0 1,-0.44922 1,-1c0,-0.55078 -0.44922,-1 -1,-1zM19,27c-0.55078,0 -1,0.44922 -1,1c0,0.55078 0.44922,1 1,1c0.55078,0 1,-0.44922 1,-1c0,-0.55078 -0.44922,-1 -1,-1zM25,27c-0.55078,0 -1,0.44922 -1,1c0,0.55078 0.44922,1 1,1c0.55078,0 1,-0.44922 1,-1c0,-0.55078 -0.44922,-1 -1,-1zM10,30c-0.55078,0 -1,0.44922 -1,1c0,0.55078 0.44922,1 1,1c0.55078,0 1,-0.44922 1,-1c0,-0.55078 -0.44922,-1 -1,-1zM16,30c-0.55078,0 -1,0.44922 -1,1c0,0.55078 0.44922,1 1,1c0.55078,0 1,-0.44922 1,-1c0,-0.55078 -0.44922,-1 -1,-1zM22,30c-0.55078,0 -1,0.44922 -1,1c0,0.55078 0.44922,1 1,1c0.55078,0 1,-0.44922 1,-1c0,-0.55078 -0.44922,-1 -1,-1zM28,30c-0.55078,0 -1,0.44922 -1,1c0,0.55078 0.44922,1 1,1c0.55078,0 1,-0.44922 1,-1c0,-0.55078 -0.44922,-1 -1,-1zM7,33c-0.55078,0 -1,0.44922 -1,1c0,0.55078 0.44922,1 1,1c0.55078,0 1,-0.44922 1,-1c0,-0.55078 -0.44922,-1 -1,-1zM13,33c-0.55078,0 -1,0.44922 -1,1c0,0.55078 0.44922,1 1,1c0.55078,0 1,-0.44922 1,-1c0,-0.55078 -0.44922,-1 -1,-1zM19,33c-0.55078,0 -1,0.44922 -1,1c0,0.55078 0.44922,1 1,1c0.55078,0 1,-0.44922 1,-1c0,-0.55078 -0.44922,-1 -1,-1zM25,33c-0.55078,0 -1,0.44922 -1,1c0,0.55078 0.44922,1 1,1c0.55078,0 1,-0.44922 1,-1c0,-0.55078 -0.44922,-1 -1,-1zM31,33c-0.55078,0 -1,0.44922 -1,1c0,0.55078 0.44922,1 1,1c0.55078,0 1,-0.44922 1,-1c0,-0.55078 -0.44922,-1 -1,-1zM10,36c-0.55078,0 -1,0.44922 -1,1c0,0.55078 0.44922,1 1,1c0.55078,0 1,-0.44922 1,-1c0,-0.55078 -0.44922,-1 -1,-1zM16,36c-0.55078,0 -1,0.44922 -1,1c0,0.55078 0.44922,1 1,1c0.55078,0 1,-0.44922 1,-1c0,-0.55078 -0.44922,-1 -1,-1zM22,36c-0.55078,0 -1,0.44922 -1,1c0,0.55078 0.44922,1 1,1c0.55078,0 1,-0.44922 1,-1c0,-0.55078 -0.44922,-1 -1,-1zM28,36c-0.55078,0 -1,0.44922 -1,1c0,0.55078 0.44922,1 1,1c0.55078,0 1,-0.44922 1,-1c0,-0.55078 -0.44922,-1 -1,-1zM7,39c-0.55078,0 -1,0.44922 -1,1c0,0.55078 0.44922,1 1,1c0.55078,0 1,-0.44922 1,-1c0,-0.55078 -0.44922,-1 -1,-1zM13,39c-0.55078,0 -1,0.44922 -1,1c0,0.55078 0.44922,1 1,1c0.55078,0 1,-0.44922 1,-1c0,-0.55078 -0.44922,-1 -1,-1zM19,39c-0.55078,0 -1,0.44922 -1,1c0,0.55078 0.44922,1 1,1c0.55078,0 1,-0.44922 1,-1c0,-0.55078 -0.44922,-1 -1,-1zM25,39c-0.55078,0 -1,0.44922 -1,1c0,0.55078 0.44922,1 1,1c0.55078,0 1,-0.44922 1,-1c0,-0.55078 -0.44922,-1 -1,-1zM10,42c-0.55078,0 -1,0.44922 -1,1c0,0.55078 0.44922,1 1,1c0.55078,0 1,-0.44922 1,-1c0,-0.55078 -0.44922,-1 -1,-1zM16,42c-0.55078,0 -1,0.44922 -1,1c0,0.55078 0.44922,1 1,1c0.55078,0 1,-0.44922 1,-1c0,-0.55078 -0.44922,-1 -1,-1zM22,42c-0.55078,0 -1,0.44922 -1,1c0,0.55078 0.44922,1 1,1c0.55078,0 1,-0.44922 1,-1c0,-0.55078 -0.44922,-1 -1,-1z"/>
    </g>
  </g>
</svg>
