<?xml version="1.0" encoding="UTF-8" standalone="no"?>
<svg width="100.43004" height="910.00024" version="1.1" id="svg7" xml:space="preserve"
  xmlns="http://www.w3.org/2000/svg" xmlns:svg="http://www.w3.org/2000/svg">
  <!-- Define the linear gradient -->
  <defs id="defs7">
    <linearGradient id="rainbowGradient" x1="-0.5091176" y1="221.35913" x2="259.50003" y2="221.35913"
      gradientTransform="matrix(0,-3.4967477,-0.38764445,0,186.63423,907.81309)" gradientUnits="userSpaceOnUse">
      <stop offset="0%" style="stop-color:red;stop-opacity:1" id="stop1" />
      <stop offset="17%" style="stop-color:orange;stop-opacity:1" id="stop2" />
      <stop offset="34%" style="stop-color:yellow;stop-opacity:1" id="stop3" />
      <stop offset="51%" style="stop-color:green;stop-opacity:1" id="stop4" />
      <stop offset="68%" style="stop-color:blue;stop-opacity:1" id="stop5" />
      <stop offset="85%" style="stop-color:indigo;stop-opacity:1" id="stop6" />
      <stop offset="100%" style="stop-color:violet;stop-opacity:1" id="stop7" />
    </linearGradient>
  </defs><!-- Draw the sine wave with the gradient fill -->
  <path
    d="m 50.430032,907.81309 q 95.342968,-34.83177 0,-69.66353 -95.342955,-34.83179 0,-69.66361 95.342968,-34.8316 0,-69.66346 -95.342955,-34.83173 0,-69.66355 95.342968,-34.83185 0,-69.66353 -95.342955,-34.83179 0,-69.66358 95.342968,-34.83172 0,-69.66345 -95.342955,-34.83175 0,-69.66354 95.342968,-34.83173 0,-69.6636 -95.342955,-34.83177 0,-69.66349 95.342968,-34.83185 0,-69.66351 -95.342955,-34.83182 0,-69.663615 95.342968,-34.8317 0,-69.6634903"
    fill="none" stroke="url(#rainbowGradient)" stroke-width="4.65704" id="path7" style="stroke:url(#rainbowGradient)" />
  <path
    d="m 50.000005,907.8131 q -95.34297,-34.83177 0,-69.66353 95.342955,-34.83179 0,-69.66361 -95.34297,-34.8316 0,-69.66346 95.342955,-34.83173 0,-69.66355 -95.34297,-34.83185 0,-69.66353 95.342955,-34.83179 0,-69.66358 -95.34297,-34.83172 0,-69.66345 95.342955,-34.83175 0,-69.66354 -95.34297,-34.83173 0,-69.6636 95.342955,-34.83177 0,-69.66349 -95.34297,-34.83185 0,-69.66351 95.342955,-34.83182 0,-69.663615 -95.34297,-34.8317 0,-69.6634907"
    fill="none" stroke="url(#rainbowGradient)" stroke-width="4.65704" id="path7-7"
    style="stroke:url(#rainbowGradient)" />
</svg>